<?xml version="1.0" encoding="UTF-8"?>
<svg width="24px" height="24px" viewBox="0 0 24 24" version="1.1" xmlns="http://www.w3.org/2000/svg" xmlns:xlink="http://www.w3.org/1999/xlink">
    <title>icon / arrow / dark</title>
    <g id="icon-/-arrow-/-dark" stroke="none" stroke-width="1" fill="none" fill-rule="evenodd">
        <path d="M16.7682885,4.38769203 C17.0969331,4.80707235 17.0701908,5.4121839 16.7248666,5.79774524 L16.6319197,5.88932708 L9.60314933,11.9999704 L16.6319197,18.1106729 L16.7248666,18.2022548 C17.0701908,18.5878161 17.0969331,19.1929276 16.7682885,19.612308 C16.4396438,20.0316883 15.8704902,20.1187428 15.4456073,19.8347055 L15.3426149,19.7559426 L7.34450092,12.8021776 L7.23119683,12.6790001 L7.23119683,12.6790001 L7.18367147,12.6134231 L7.18367147,12.6134231 L7.12637144,12.5174593 L7.12637144,12.5174593 L7.07421621,12.4026434 L7.07421621,12.4026434 L7.04285102,12.3096588 L7.04285102,12.3096588 L7.01507522,12.1873475 L7.01507522,12.1873475 L7.00150812,12.0681371 L7.00150812,12.0681371 L7,11.9664365 L7,11.9664365 L7.01003621,11.8464671 L7.01003621,11.8464671 L7.02760394,11.7494803 L7.02760394,11.7494803 L7.05289777,11.6574182 L7.05289777,11.6574182 L7.07323438,11.599889 L7.07323438,11.599889 L7.12634151,11.4825707 L7.12634151,11.4825707 L7.1786717,11.3937478 L7.27461872,11.2689469 L7.27461872,11.2689469 L7.34252532,11.199656 L7.34252532,11.199656 L15.3426149,4.24405737 C15.773961,3.86905592 16.4122568,3.93336334 16.7682885,4.38769203 Z" id="Path" fill="#1D1E1F" fill-rule="nonzero" transform="translate(12.000000, 12.000000) scale(-1, 1) translate(-12.000000, -12.000000) "></path>
    </g>
</svg> 